<svg id="Calque_1" data-name="Calque 1" xmlns="http://www.w3.org/2000/svg" viewBox="0 0 1237.6 396.93"><defs><style>.cls-1{fill:#fff;}</style></defs><title>logo_white</title><g id="Calque_2" data-name="Calque 2"><g id="Calque_1-2" data-name="Calque 1-2"><path class="cls-1" d="M702.84,24.13c-36.42-.05-68.39,15.67-97.07,33.78-52.28,33-89,74.28-88.93,140.88,0,51.32,22.33,115.55,55.82,149.27s78.19,48.81,129.17,48.87c63.82.08,120.07-32.36,153.33-81.83,9-13.44,20.26-28.13,25.59-43.77,6.44-18.9,6.06-39.18,6.09-60.3,0-32.48-13.94-63-28.3-89.66C827.33,63.51,772.57,24.23,702.84,24.13Zm15.22,310A126.21,126.21,0,0,1,663.53,321a129.25,129.25,0,0,1-53.94-49.71,118.68,118.68,0,0,1,7.21-132.44c23.27-31.34,61-50.84,101.89-51,38.06-.12,69.17,16.43,91.64,44,17.48,21.43,31.86,57.71,31.81,87.7-.14,68.5-56.52,115.24-124.08,114.57Z" transform="translate(0 0)"/><path class="cls-1" d="M735.39,164c-15-7.29-31.42-11.82-41.7-15.53-31.07,2.92-52.53,7.87-62.42,35.55-8.83,24.72-5.94,51.11,12.22,69.41a59.6,59.6,0,0,0,65.66,13.19C733,256.75,747,234,746.05,207.05c-.16-4.93-1.15-10.38.5-14.73C751.59,179.05,746.07,169.21,735.39,164Z" transform="translate(0 0)"/><path class="cls-1" d="M509.47,11.21c-10.75-10-27.26-13.7-42.32-9.52-15.8,4.4-25.62,16-25.87,30.43,0,2.64.43,5.59-.78,7.85-3.69,6.89-.4,12.35,6.39,15.51,9.57,4.46,20.09,7.49,26.67,9.86C493.87,65,508,63.12,515.28,48.72,521.8,35.86,520.73,21.66,509.47,11.21Z" transform="translate(0 0)"/><path class="cls-1" d="M1227.68,200.88c-10.61-6.71-26.69-9.44-41.21-7-15.24,2.57-24.54,10-24.51,19.37,0,1.72.52,3.65-.62,5.1-3.44,4.43-.16,8.06,6.48,10.25,9.36,3.08,19.62,5.25,26,6.92,19.68.12,33.34-.81,40.14-10.08C1240.08,217.19,1238.78,207.91,1227.68,200.88Z" transform="translate(0 0)"/><path class="cls-1" d="M76.18,203.2c-12-6.79-30.15-9.64-46.5-7.29-17.16,2.46-27.59,9.78-27.49,19.2,0,1.72.61,3.66-.65,5.1-3.86,4.41-.13,8.06,7.38,10.3,10.57,3.15,22.15,5.4,29.39,7.11,22.19.27,37.58-.56,45.18-9.78C90.28,219.61,88.75,210.31,76.18,203.2Z" transform="translate(0 0)"/><path class="cls-1" d="M482.78,90.8c-22-8.5-35.88.66-35.88.66-26.61,18.44-32.8,229.43-32.8,229.43-12.6,27.25,5.56,51.55,5.56,51.55s19,5.46,30.49,5.88,20-21.25,20-21.25c19-44.55,14.62-210,14.62-210C490.13,144.49,504.79,99.3,482.78,90.8Z" transform="translate(0 0)"/><path class="cls-1" d="M366.1,125.83c-.19-.68-.36-1.44-.52-2.29-.75-3.21-1.53-6.24-2.34-9.07-5.59-16.64-15.37-21-18.1-22-22.47-6.79-41.35,9.41-48.12,16.3-17.34,18.38-37.94,51.65-49,70.37-4.36-7.32-9.12-14.74-13.78-21.73a45.18,45.18,0,0,1-3.74-5.54c-9.14-13.42-17.35-24.53-20.73-29-15.26-16.9-27.7-21.31-33.8-22.43-1.43-.18-2.81-.31-4.07-.35-8.81-.33-15.37,16.33-15.37,16.33-14.53,34.22-11.2,161.33-11.2,161.33-4.11,2-15.37,36.74,1.54,43.27s27.57-.51,27.57-.51c13.68-9.48,20.34-85.18,23.25-134.25,10.38,13.36,20.21,24.85,24.63,29.93a14.12,14.12,0,0,0,2.07,4.12c-.62,5.95,6,25.45,20.16,20.34a48.88,48.88,0,0,0,11.93-6.15c15.58-8.71,39.5-38.81,56.95-62.7-.38,47.83.57,151.43,15,185.27,0,0,8.53,21.68,20,21.25s30.49-5.88,30.49-5.88,18.16-24.3,5.56-51.55C384.48,320.89,380.66,190.57,366.1,125.83Z" transform="translate(0 0)"/><path class="cls-1" d="M1107.88,243.09s7.32-95.47-6.54-126.41c0,0-6.19-15-15.38-15.15s-24.56,2.94-24.56,2.94-15.23,15.91-6,34.87c0,0-.64,73.12,6.53,119.92h0s7.09,36.58-15.56,45c-48.38,17.91-59.14-69.37-59.14-69.37-3.67-56.73-12.78-154-32.57-165.66,0,0-14.68-8.24-37.95-.59s-7.77,48.28-2.12,50.64c0,0-4.61,148.77,15.46,188.83A65.59,65.59,0,0,0,968.21,342h0c14.26,6.7,40.08,15.13,83.58,14.86,13.06-.08,23.35-3.71,31.45-9.34h0a59,59,0,0,0,17.27-19.37c17.36-25.71,16-52.35,12.4-68.8C1111.63,250.65,1109.41,243.81,1107.88,243.09Z" transform="translate(0 0)"/></g></g></svg>